<svg xmlns="http://www.w3.org/2000/svg" xmlns:xlink="http://www.w3.org/1999/xlink" viewBox="0,0,256,256" width="200px" height="200px"><g fill="none" fill-rule="nonzero" stroke="none" stroke-width="1" stroke-linecap="butt" stroke-linejoin="miter" stroke-miterlimit="10" stroke-dasharray="" stroke-dashoffset="0" font-family="none" font-weight="none" font-size="none" text-anchor="none" style="mix-blend-mode: normal"><g transform="scale(2.56,2.56)"><path d="M91,25v52c0,2.21 -1.79,4 -4,4h-74c-2,0 -3.66,-1.47 -3.95,-3.39c-0.03,-0.2 -0.05,-0.4 -0.05,-0.61v-52c0,-2.21 1.79,-4 4,-4h74c2.21,0 4,1.79 4,4z" fill="#8df3fb"></path><path d="M91,25v18.88c-5.58,15.03 -15.55,27.92 -28.36,37.12h-49.64c-2,0 -3.66,-1.47 -3.95,-3.39c-0.03,-0.2 -0.05,-0.4 -0.05,-0.61v-52c0,-2.21 1.79,-4 4,-4h74c2.21,0 4,1.79 4,4z" fill="#7ee2ff"></path><path d="M77.8,21c-2.55,31.9 -29.24,57 -61.8,57c-2.35,0 -4.67,-0.13 -6.95,-0.39c-0.03,-0.2 -0.05,-0.4 -0.05,-0.61v-52c0,-2.21 1.79,-4 4,-4z" fill="#6cc5fd"></path><path d="M57.7,21c-2.47,20.84 -20.19,37 -41.7,37c-2.38,0 -4.72,-0.2 -7,-0.58v-32.42c0,-2.21 1.79,-4 4,-4z" fill="#5ca7ff"></path><path d="M87,82h-74c-2.757,0 -5,-2.243 -5,-5v-52c0,-2.757 2.243,-5 5,-5h57.4c0.553,0 1,0.448 1,1c0,0.552 -0.447,1 -1,1h-57.4c-1.654,0 -3,1.346 -3,3v52c0,1.654 1.346,3 3,3h74c1.654,0 3,-1.346 3,-3v-52c0,-1.654 -1.346,-3 -3,-3h-5.43c-0.553,0 -1,-0.448 -1,-1c0,-0.552 0.447,-1 1,-1h5.43c2.757,0 5,2.243 5,5v52c0,2.757 -2.243,5 -5,5z" fill="#6c6c6c"></path><path d="M61.5,25h-5c-0.276,0 -0.5,-0.224 -0.5,-0.5c0,-0.276 0.224,-0.5 0.5,-0.5h5c0.276,0 0.5,0.224 0.5,0.5c0,0.276 -0.224,0.5 -0.5,0.5z" fill="#6c6c6c"></path><path d="M12.5,53c-0.276,0 -0.5,-0.224 -0.5,-0.5v-26c0,-1.378 1.121,-2.5 2.5,-2.5h39c0.276,0 0.5,0.224 0.5,0.5c0,0.276 -0.224,0.5 -0.5,0.5h-39c-0.827,0 -1.5,0.673 -1.5,1.5v26c0,0.276 -0.224,0.5 -0.5,0.5z" fill="#6c6c6c"></path><path d="M12.5,69c-0.276,0 -0.5,-0.224 -0.5,-0.5v-11c0,-0.276 0.224,-0.5 0.5,-0.5c0.276,0 0.5,0.224 0.5,0.5v11c0,0.276 -0.224,0.5 -0.5,0.5z" fill="#6c6c6c"></path><path d="M72.5,78h-24c-0.276,0 -0.5,-0.224 -0.5,-0.5c0,-0.276 0.224,-0.5 0.5,-0.5h24c0.276,0 0.5,0.224 0.5,0.5c0,0.276 -0.224,0.5 -0.5,0.5z" fill="#6c6c6c"></path><path d="M85.5,78h-9c-0.276,0 -0.5,-0.224 -0.5,-0.5c0,-0.276 0.224,-0.5 0.5,-0.5h9c0.827,0 1.5,-0.673 1.5,-1.5v-26c0,-0.276 0.224,-0.5 0.5,-0.5c0.276,0 0.5,0.224 0.5,0.5v26c0,1.378 -1.121,2.5 -2.5,2.5z" fill="#6c6c6c"></path><path d="M87.5,45c-0.276,0 -0.5,-0.224 -0.5,-0.5v-6c0,-0.276 0.224,-0.5 0.5,-0.5c0.276,0 0.5,0.224 0.5,0.5v6c0,0.276 -0.224,0.5 -0.5,0.5z" fill="#6c6c6c"></path><path d="M87.5,36c-0.276,0 -0.5,-0.224 -0.5,-0.5v-2c0,-0.276 0.224,-0.5 0.5,-0.5c0.276,0 0.5,0.224 0.5,0.5v2c0,0.276 -0.224,0.5 -0.5,0.5z" fill="#6c6c6c"></path><path d="M18,46.315c0,-1.837 4.035,-8.09 10.904,-8.09c11.044,0 12.717,14.382 20.004,14.382c5.581,0 7.214,-3.596 8.183,-3.596c0.458,0 0.909,0.261 0.909,0.633c0,1.573 -4.592,8.356 -10.911,8.356c-10.906,0 -11.073,-14.382 -20.004,-14.382c-4.786,0 -6.978,3.596 -8.183,3.596c-0.795,-0.001 -0.902,-0.504 -0.902,-0.899z" fill="#ffffff"></path><path d="M85.15,13.47c0.47,0.29 0.61,0.91 0.31,1.38l-18.46,29.15l-8,-5l18.47,-29.16c0.29,-0.46 0.91,-0.6 1.37,-0.31z" fill="#bcbcbc"></path><path d="M67,44l-9,5l1,-10z" fill="#e3e2e3"></path><path d="M58,50c-0.191,0 -0.383,-0.055 -0.55,-0.165c-0.311,-0.205 -0.482,-0.564 -0.445,-0.935l1,-10c0.016,-0.155 0.067,-0.304 0.15,-0.436l18.47,-29.16c0.585,-0.927 1.815,-1.206 2.748,-0.621l6.307,3.938c0.451,0.278 0.768,0.72 0.888,1.243c0.121,0.525 0.026,1.066 -0.265,1.523l-18.458,29.148c-0.09,0.141 -0.213,0.258 -0.359,0.339l-9,5c-0.152,0.084 -0.319,0.126 -0.486,0.126zM59.972,39.335l-0.786,7.863l7.106,-3.948l18.323,-28.935l-6.305,-3.937zM67,44h0.01z" fill="#6c6c6c"></path><path d="M66.999,45c-0.181,0 -0.364,-0.049 -0.529,-0.152l-8,-5c-0.468,-0.293 -0.61,-0.91 -0.317,-1.378c0.293,-0.469 0.908,-0.611 1.378,-0.318l8,5c0.468,0.293 0.61,0.91 0.317,1.378c-0.19,0.303 -0.516,0.47 -0.849,0.47z" fill="#6c6c6c"></path><path d="M43,57.696c-0.066,0 -0.133,-0.013 -0.197,-0.041c-3.269,-1.405 -5.289,-4.299 -7.242,-7.098c-2.311,-3.312 -4.494,-6.439 -8.476,-6.439c-3.015,0 -4.978,1.537 -6.276,2.553c-0.772,0.605 -1.331,1.042 -1.906,1.042c-0.892,0 -1.402,-0.51 -1.402,-1.399c0,-2.071 4.17,-8.59 11.403,-8.59c2.753,0 5.175,0.854 7.406,2.611c0.217,0.17 0.254,0.485 0.083,0.702c-0.171,0.217 -0.485,0.254 -0.702,0.083c-2.048,-1.612 -4.268,-2.396 -6.787,-2.396c-6.616,0 -10.403,5.965 -10.403,7.59c0,0.314 0.05,0.399 0.402,0.399c0.23,0 0.793,-0.441 1.29,-0.83c1.407,-1.102 3.533,-2.766 6.893,-2.766c4.504,0 6.939,3.491 9.296,6.867c1.873,2.684 3.811,5.459 6.816,6.751c0.254,0.109 0.371,0.403 0.262,0.657c-0.082,0.191 -0.267,0.304 -0.46,0.304z" fill="#6c6c6c"></path><path d="M47.089,58.5c-0.755,0 -1.489,-0.067 -2.184,-0.201c-0.271,-0.052 -0.448,-0.314 -0.396,-0.585c0.052,-0.272 0.316,-0.446 0.586,-0.397c0.631,0.122 1.302,0.183 1.994,0.183c0.276,0 0.5,0.224 0.5,0.5c0,0.276 -0.224,0.5 -0.5,0.5z" fill="#6c6c6c"></path><path d="M49,58.293c-0.23,0 -0.438,-0.16 -0.488,-0.395c-0.059,-0.27 0.113,-0.536 0.383,-0.594c5.171,-1.116 8.605,-6.538 8.605,-7.661c-0.018,-0.024 -0.175,-0.133 -0.409,-0.133c-0.12,0.025 -0.483,0.355 -0.775,0.621c-1.145,1.04 -3.276,2.975 -7.408,2.975c-3.518,0 -5.775,-3.05 -8.165,-6.28c-0.867,-1.171 -1.763,-2.382 -2.75,-3.496c-0.184,-0.207 -0.164,-0.522 0.042,-0.706c0.207,-0.183 0.522,-0.167 0.706,0.042c1.017,1.146 1.926,2.375 2.806,3.564c2.333,3.152 4.348,5.875 7.361,5.875c3.746,0 5.617,-1.7 6.735,-2.715c0.563,-0.511 0.97,-0.88 1.448,-0.88c0.692,0 1.409,0.424 1.409,1.133c0,1.648 -3.794,7.429 -9.395,8.638c-0.035,0.009 -0.071,0.012 -0.105,0.012z" fill="#6c6c6c"></path></g></g></svg>